<?xml version="1.0" encoding="UTF-8" standalone="no"?>
<svg
   xmlns:dc="http://purl.org/dc/elements/1.1/"
   xmlns:cc="http://creativecommons.org/ns#"
   xmlns:rdf="http://www.w3.org/1999/02/22-rdf-syntax-ns#"
   xmlns:svg="http://www.w3.org/2000/svg"
   xmlns="http://www.w3.org/2000/svg"
   viewBox="0 0 480 202.66667"
   height="202.66667"
   width="480"
   xml:space="preserve"
   id="svg2"
   version="1.1"><metadata
     id="metadata8"><rdf:RDF><cc:Work
         rdf:about=""><dc:format>image/svg+xml</dc:format><dc:type
           rdf:resource="http://purl.org/dc/dcmitype/StillImage" /></cc:Work></rdf:RDF></metadata><defs
     id="defs6" /><g
     transform="matrix(1.3333333,0,0,-1.3333333,0,202.66667)"
     id="g10"><g
       transform="scale(0.1)"
       id="g12"><path
         id="path14"
         style="fill:#412b8d;fill-opacity:1;fill-rule:nonzero;stroke:none"
         d="m 1040,432 c 0,-17.641 -14.35,-32 -32,-32 H 432 c -17.645,0 -32,14.359 -32,32 v 656 c 0,17.64 14.355,32 32,32 h 576 c 17.65,0 32,-14.36 32,-32 z m -32,728 H 432 c -39.766,0 -72,-32.23 -72,-72 V 432 c 0,-39.762 32.234,-72 72,-72 h 576 c 39.76,0 72,32.238 72,72 v 656 c 0,39.77 -32.24,72 -72,72" /><path
         id="path16"
         style="fill:#412b8d;fill-opacity:1;fill-rule:nonzero;stroke:none"
         d="m 540,480 90,80 -90,80 z" /><path
         id="path18"
         style="fill:#412b8d;fill-opacity:1;fill-rule:nonzero;stroke:none"
         d="M 865.172,804.246 C 849.047,820.559 819.449,840 770,840 715.766,840 659.938,825.895 620,812.891 V 1040 H 540 V 693.074 l 56.508,25.602 C 597.418,719.094 688.656,760 770,760 c 40.613,0 49.609,-22.426 50,-41.098 V 480 h 80 l -0.004,240 c 0.059,5.117 -0.422,49.453 -34.824,84.246" /><path
         id="path20"
         style="fill:#412b8d;fill-opacity:1;fill-rule:nonzero;stroke:none"
         d="m 760,910 h 80 c 36.18,41.004 54.598,84.566 60,130 h -80 c -8.82,-45.344 -28.562,-88.746 -60,-130" /><path
         id="path22"
         style="fill:#412b8d;fill-opacity:1;fill-rule:nonzero;stroke:none"
         d="m 1260,899.527 h 79.75 V 789.879 h 98.09 v 109.648 h 79.76 V 604.453 h -79.76 v 119.231 h -98.09 V 604.453 H 1260 v 295.074" /><path
         id="path24"
         style="fill:#412b8d;fill-opacity:1;fill-rule:nonzero;stroke:none"
         d="m 1620.32,899.527 h 210.54 v -66.195 h -130.79 v -47.855 h 93.31 V 723.27 h -93.31 v -54.618 h 137.58 v -64.199 h -217.33 v 295.074" /><path
         id="path26"
         style="fill:#412b8d;fill-opacity:1;fill-rule:nonzero;stroke:none"
         d="m 2037.68,767.547 c 32.7,0 47.05,9.172 47.05,33.891 0,24.714 -14.35,33.5 -47.05,33.5 h -34.29 v -67.391 z m -112.44,131.98 h 115.24 c 75.76,0 122.02,-25.132 122.02,-96.097 0,-46.246 -19.55,-72.985 -58.22,-86.121 l 62.6,-112.856 h -84.53 l -57.03,102.469 h -21.93 V 604.453 h -78.15 v 295.074" /><path
         id="path28"
         style="fill:#412b8d;fill-opacity:1;fill-rule:nonzero;stroke:none"
         d="m 2455.83,752.004 c 0,54.226 -23.52,87.312 -64.99,87.312 -41.87,0 -65.39,-33.086 -65.39,-87.312 0,-54.254 23.52,-89.336 65.39,-89.336 41.47,0 64.99,35.082 64.99,89.336 z m -210.13,0 c 0,108.039 73.76,153.117 145.14,153.117 70.98,0 144.75,-45.078 144.75,-153.117 0,-108.066 -73.77,-153.121 -144.75,-153.121 -71.38,0 -145.14,45.055 -145.14,153.121" /><path
         id="path30"
         style="fill:#412b8d;fill-opacity:1;fill-rule:nonzero;stroke:none"
         d="m 2624.37,899.527 h 79.74 V 792.652 l 81.36,106.875 h 92.5 l -99.29,-116.433 108.06,-178.641 h -90.12 l -69.77,118.039 -22.74,-26.324 v -91.715 h -79.74 v 295.074" /><path
         id="path32"
         style="fill:#412b8d;fill-opacity:1;fill-rule:nonzero;stroke:none"
         d="m 2960.37,722.883 v 176.644 h 79.75 V 723.27 c 0,-40.653 13.16,-58.997 45.07,-58.997 31.89,0 44.65,18.344 44.65,58.997 V 899.527 H 3208 V 722.883 c 0,-78.168 -37.48,-122.809 -123.61,-122.809 -86.14,0 -124.02,44.641 -124.02,122.809" /></g></g></svg>