<?xml version="1.0" encoding="UTF-8" standalone="no"?>
<svg
   xmlns:dc="http://purl.org/dc/elements/1.1/"
   xmlns:cc="http://creativecommons.org/ns#"
   xmlns:rdf="http://www.w3.org/1999/02/22-rdf-syntax-ns#"
   xmlns:svg="http://www.w3.org/2000/svg"
   xmlns="http://www.w3.org/2000/svg"
   viewBox="0 0 576 133.33333"
   height="133.33333"
   width="576"
   xml:space="preserve"
   id="svg2"
   version="1.1"><metadata
     id="metadata8"><rdf:RDF><cc:Work
         rdf:about=""><dc:format>image/svg+xml</dc:format><dc:type
           rdf:resource="http://purl.org/dc/dcmitype/StillImage" /></cc:Work></rdf:RDF></metadata><defs
     id="defs6" /><g
     transform="matrix(1.3333333,0,0,-1.3333333,0,133.33333)"
     id="g10"><g
       transform="scale(0.1)"
       id="g12"><path
         id="path14"
         style="fill:#dc273e;fill-opacity:1;fill-rule:nonzero;stroke:none"
         d="m 20,500.016 c 0,65.57 53.125,118.738 118.656,118.738 65.535,0 118.684,-53.168 118.684,-118.738 0,-65.594 -53.149,-118.762 -118.684,-118.762 C 73.125,381.254 20,434.422 20,500.016 M 853.547,381.254 c -65.535,0 -118.66,53.168 -118.66,118.762 0,65.57 53.125,118.738 118.66,118.738 65.527,0 118.68,-53.168 118.68,-118.738 0,-65.594 -53.153,-118.762 -118.68,-118.762 z M 853.559,975 C 591.402,975 378.875,762.328 378.875,500.012 378.875,237.66 591.402,25 853.559,25 1115.73,25 1328.24,237.66 1328.24,500.012 1328.24,762.328 1115.73,975 853.559,975" /><path
         id="path16"
         style="fill:#2e2d2d;fill-opacity:1;fill-rule:nonzero;stroke:none"
         d="m 4246.15,536.758 c 7.49,0 11.93,3.359 11.93,9.469 0,5.531 -3.05,9.164 -11.39,9.164 h -7.77 v -18.633 z m -18.62,28.066 h 21.09 c 11.67,0 21.67,-4.719 21.67,-18.054 0,-6.653 -4.17,-13.067 -10.27,-15.274 l 12.78,-23.074 h -12.78 l -9.74,19.445 h -11.36 v -19.445 h -11.39 z m 61.35,-28.883 c 0,26.098 -18.05,44.731 -41.34,44.731 -23.34,0 -41.11,-18.633 -41.11,-44.731 0,-26.398 17.77,-44.453 41.11,-44.453 23.29,0 41.34,18.055 41.34,44.453 z m -93.57,0 c 0,32.512 23.6,54.743 52.23,54.743 28.86,0 52.46,-22.231 52.46,-54.743 0,-32.507 -23.6,-54.738 -52.46,-54.738 -28.63,0 -52.23,22.231 -52.23,54.738 z M 3846.97,313.742 c 7.03,0 12.97,5.867 12.97,12.899 v 47.683 c 0,7.031 -5.86,12.899 -12.89,12.899 l -2.08,-0.004 c -5.82,0 -11.64,5.793 -11.64,11.617 l 0.01,2.102 v 280.421 c 0,6.45 -6.45,12.899 -12.89,12.899 h -47.46 c -6.44,0 -12.88,-6.449 -12.88,-12.899 V 368.402 l 0.19,-8.152 c 0,-23.297 23.28,-46.574 46.55,-46.574 z M 1758.62,619.625 c 64.54,0 119.03,-54.719 119.03,-119.594 0,-65.465 -53.42,-118.617 -119.03,-118.617 -65.32,0 -118.44,53.152 -118.44,118.617 0,65.949 53.12,119.594 118.44,119.594 z m 0,75.332 c -106.82,0 -193.72,-87.449 -193.72,-194.926 0,-108.75 85.04,-193.949 193.72,-193.949 108.97,0 194.31,85.199 194.31,193.949 0,107.477 -87.2,194.926 -194.31,194.926 z M 3304.48,390.988 c -3.51,-9.965 -24.6,-28.726 -48.62,-28.726 -25.19,0 -39.25,15.242 -39.25,38.105 0,24.039 16.99,38.696 48.04,38.696 21.67,0 39.83,-8.208 39.83,-8.208 z m -31.63,199.91 c -43.94,0 -86.71,-11.14 -92.57,-13.484 -5.85,-1.758 -11.13,-6.449 -8.78,-16.414 l 5.86,-30.484 c 1.17,-8.207 6.44,-14.657 15.23,-11.727 15.82,4.691 51.55,9.969 76.16,9.969 28.7,0 38.66,-16.418 37.49,-51.004 0,0 -24.6,7.621 -52.14,7.621 -68.54,0 -107.79,-36.934 -107.79,-85.008 0,-58.035 37.49,-92.625 91.39,-92.625 42.18,0 69.13,18.762 84.95,34.004 v -14.558 c 0,-7.036 5.86,-12.899 12.89,-12.899 h 4.78 c 0.49,-0.098 1.07,-0.098 1.66,-0.098 h 19.92 c 7.03,0 12.89,5.864 12.89,12.899 v 145.973 c 0,73.867 -17.58,117.835 -101.94,117.835 z m -491.82,0 c -51.85,0 -77.04,-27.847 -87.1,-39.082 v 20.321 c 0,7.035 -5.86,12.898 -12.89,12.898 h -30.65 c -6.45,0 -12.89,-5.277 -12.89,-12.898 V 327.09 c 0,-7.035 6.44,-12.899 12.89,-12.899 h 43.35 c 12.89,0 16.99,2.93 16.99,12.899 v 154.765 c 6.44,18.762 23.43,42.211 58.58,42.211 32.81,0 46.87,-21.691 46.87,-56.867 V 327.09 c 0,-7.035 5.86,-12.899 12.89,-12.899 h 47.45 c 6.45,0 12.89,5.864 12.89,12.899 v 140.109 c 0,65.66 -22.26,123.699 -108.38,123.699 z M 2136.01,374.574 c -33.98,0 -56.24,15.242 -56.24,15.242 v 96.731 c 5.86,15.242 24.6,37.519 59.76,37.519 42.18,0 63.85,-36.933 63.85,-75.039 0,-38.105 -22.84,-74.453 -67.37,-74.453 z m 13.48,216.324 c -55.66,0 -86.52,-38.007 -88.37,-40.351 v 21.59 c 0,7.035 -5.86,12.898 -12.89,12.898 h -28.8 c -7.03,0 -12.89,-5.863 -12.89,-12.898 V 216.875 c 0,-6.449 5.86,-12.898 12.89,-12.898 h 47.45 c 6.45,0 12.89,6.449 12.89,12.898 v 102.008 c 12.3,-4.692 38.08,-11.141 65.03,-11.141 80.85,0 134.16,62.141 134.16,141.285 0,82.075 -55.66,141.871 -129.47,141.871 z M 4081.48,483.637 c -1.17,26.375 -22.25,46.886 -52.14,46.886 -32.8,0 -53.89,-19.921 -57.4,-46.886 z m -50.37,107.273 c 70.29,0 124.19,-52.18 124.19,-125.449 0,-4.106 -0.59,-13.484 -1.17,-17.586 -0.59,-7.043 -7.03,-12.309 -12.89,-12.309 h -173.41 c 0.59,-33.418 28.12,-62.726 67.38,-62.726 26.94,0 45.69,9.961 57.99,19.922 6.45,5.285 13.47,5.867 17.58,0 l 22.84,-30.477 c 4.69,-5.277 5.27,-11.726 -1.17,-17.586 -23.43,-19.933 -56.82,-36.933 -100.76,-36.933 -80.84,0 -137.08,64.48 -137.08,141.863 0,76.211 56.24,141.281 136.5,141.281 z m -458.5,-216.336 c -35.15,0 -53.9,22.278 -59.76,37.52 v 96.73 c 0,0 22.26,15.242 56.24,15.242 44.53,0 67.38,-36.347 67.38,-74.453 0,-38.105 -21.68,-75.039 -63.86,-75.039 z m 6.44,216.324 c -26.95,0 -53.89,-6.449 -66.2,-11.726 v 103.18 c 0,6.449 -5.86,12.898 -12.89,12.898 h -47.45 c -6.45,0 -12.89,-6.449 -12.89,-12.898 V 327.09 c 0,-7.035 6.44,-12.899 12.89,-12.899 h 20.5 c 0.39,0 0.79,0 1.18,0.098 h 5.47 c 7.12,0 12.98,5.863 12.98,12.899 v 20.027 l 0.29,0.976 c 0,0 31.05,-40.449 90.22,-40.449 73.82,0 127.13,64.488 127.13,141.871 0,79.145 -50.97,141.285 -131.23,141.285 z M 3164.56,695.25 h -275.55 c -6.44,0 -11.13,-5.277 -11.13,-11.141 v -48.07 c 0,-5.863 4.69,-11.141 11.13,-11.141 h 99.4 v -299.57 c 0,-5.859 5.27,-11.137 11.13,-11.137 h 54.49 c 5.85,0 11.13,5.278 11.13,11.137 v 299.57 h 99.4 c 6.44,0 11.13,5.278 11.13,11.141 v 48.07 c 0,5.864 -4.69,11.141 -11.13,11.141 z M 2508.6,483.637 c -1.18,26.375 -22.26,46.886 -52.14,46.886 -32.8,0 -53.9,-19.921 -57.4,-46.886 z m -50.38,107.273 c 70.3,0 124.19,-52.18 124.19,-125.449 0,-4.106 -0.58,-13.484 -1.16,-17.586 -0.6,-7.043 -7.04,-12.309 -12.9,-12.309 h -173.4 c 0.59,-33.418 28.12,-62.726 67.37,-62.726 26.95,0 45.7,9.961 58,19.922 6.44,5.285 13.47,5.867 17.57,0 l 22.85,-30.477 c 4.69,-5.277 5.27,-11.726 -1.18,-17.586 -23.43,-19.933 -56.82,-36.933 -100.76,-36.933 -80.84,0 -137.08,64.48 -137.08,141.863 0,76.211 56.24,141.281 136.5,141.281" /></g></g></svg>