<?xml version="1.0" encoding="iso-8859-1"?>
<!DOCTYPE svg PUBLIC "-//W3C//DTD SVG 1.1//EN" "http://www.w3.org/Graphics/SVG/1.1/DTD/svg11.dtd">
<svg xmlns="http://www.w3.org/2000/svg" xmlns:xlink="http://www.w3.org/1999/xlink" version="1.1" viewBox="0 0 297 297" enable-background="new 0 0 297 297" width="512px" height="512px">
  <g>
    <path d="m143.416,249.372c1.55,0.993 3.316,1.491 5.084,1.491s3.535-0.498 5.084-1.491c6.345-4.073 61.987-40.763 61.987-74.533 0-21.516-17.155-39.02-38.241-39.02-11.49,0-21.814,5.198-28.83,13.41-7.018-8.212-17.341-13.41-28.832-13.41-21.086,0-38.241,17.504-38.241,39.02 0,33.772 55.644,70.461 61.989,74.533zm-23.748-94.729c10.708,0 19.42,9.06 19.42,20.196 0,5.198 4.214,9.412 9.412,9.412s9.412-4.214 9.412-9.412c0-11.137 8.711-20.196 19.418-20.196 10.707,0 19.417,9.06 19.417,20.196 0,16.375-27.757,41.134-48.251,55.3-20.494-14.145-48.246-38.886-48.246-55.3-2.84217e-14-11.137 8.711-20.196 19.418-20.196z" fill="#383b43"/>
    <path d="M0,241.451c0,26.949,21.923,48.873,48.871,48.873h199.254c26.949,0,48.873-21.924,48.873-48.873L297,44.062   c0-5.775-4.683-10.457-10.458-10.457h-41.31V17.133c0-5.774-4.682-10.457-10.457-10.457c-5.775,0-10.458,4.683-10.458,10.457   v16.472H72.681V17.133c0-5.774-4.683-10.457-10.458-10.457c-5.775,0-10.457,4.683-10.457,10.457v16.472H10.458   C4.683,33.604,0,38.286,0,44.062V241.451z M20.916,54.52h30.85v14.379c0,5.775,4.682,10.458,10.457,10.458   c5.775,0,10.458-4.683,10.458-10.458V54.52h151.637v14.379c0,5.775,4.683,10.458,10.458,10.458c5.775,0,10.457-4.683,10.457-10.458   V54.52h30.852v48.105H20.916V54.52z M276.083,241.451c0,15.416-12.542,27.958-27.958,27.958H48.871   c-15.415,0-27.956-12.542-27.956-27.958V123.54h255.168V241.451z" fill="#383b43"/>
  </g>
</svg>
