<?xml version="1.0" encoding="iso-8859-1"?>
<!DOCTYPE svg PUBLIC "-//W3C//DTD SVG 1.1//EN" "http://www.w3.org/Graphics/SVG/1.1/DTD/svg11.dtd">
<svg xmlns="http://www.w3.org/2000/svg" xmlns:xlink="http://www.w3.org/1999/xlink" version="1.1" viewBox="0 0 240.365 240.365" enable-background="new 0 0 240.365 240.365" width="512px" height="512px">
  <g>
    <path d="m32.527,138.517h-7.479c-3.313,0-6,2.687-6,6s2.687,6 6,6h7.479c3.313,0 6-2.687 6-6s-2.686-6-6-6z" fill="#383b43"/>
    <path d="m32.527,160.333h-7.479c-3.313,0-6,2.687-6,6s2.687,6 6,6h7.479c3.313,0 6-2.687 6-6s-2.686-6-6-6z" fill="#383b43"/>
    <path d="m56.055,138.517h-7.479c-3.313,0-6,2.687-6,6s2.687,6 6,6h7.479c3.313,0 6-2.687 6-6s-2.687-6-6-6z" fill="#383b43"/>
    <path d="m56.055,160.333h-7.479c-3.313,0-6,2.687-6,6s2.687,6 6,6h7.479c3.313,0 6-2.687 6-6s-2.687-6-6-6z" fill="#383b43"/>
    <path d="m167.522,157.772h-7.479c-3.313,0-6,2.687-6,6s2.687,6 6,6h7.479c3.313,0 6-2.687 6-6s-2.686-6-6-6z" fill="#383b43"/>
    <path d="m167.522,179.588h-7.479c-3.313,0-6,2.687-6,6s2.687,6 6,6h7.479c3.313,0 6-2.687 6-6s-2.686-6-6-6z" fill="#383b43"/>
    <path d="m191.05,157.772h-7.479c-3.313,0-6,2.687-6,6s2.687,6 6,6h7.479c3.313,0 6-2.687 6-6s-2.687-6-6-6z" fill="#383b43"/>
    <path d="m191.05,179.588h-7.479c-3.313,0-6,2.687-6,6s2.687,6 6,6h7.479c3.313,0 6-2.687 6-6s-2.687-6-6-6z" fill="#383b43"/>
    <path d="m234.365,18.263h-170.121c-3.313,0-6,2.687-6,6s2.687,6 6,6h4.858v83.919h-63.102c-3.313,0-6,2.687-6,6v95.919c0,3.313 2.687,6 6,6h69.103 148.403c3.313,0 6-2.687 6-6v-78.466-107.372h4.859c3.313-3.55271e-15 6-2.687 6-6s-2.686-6-6-6zm-100.778,125.373h83.919v66.466h-83.919v-66.466zm14.555-12l27.404-17.489 27.405,17.489h-54.809zm30.631-29.664c-1.969-1.257-4.486-1.257-6.455,0l-47.959,30.606c-1.728,1.102-2.772,3.009-2.772,5.058v72.466h-40.484v-89.919-89.92h136.403v96.426l-38.733-24.717zm-166.773,24.211h57.103v83.919h-57.103v-83.919z" fill="#383b43"/>
    <path d="m120.348,54.03h-13.573c-3.313,0-6,2.687-6,6s2.687,6 6,6h13.573c3.313,0 6-2.687 6-6s-2.687-6-6-6z" fill="#383b43"/>
    <path d="m156.091,54.03h-13.573c-3.313,0-6,2.687-6,6s2.687,6 6,6h13.573c3.313,0 6-2.687 6-6s-2.687-6-6-6z" fill="#383b43"/>
    <path d="m178.261,66.03h13.574c3.313,0 6-2.687 6-6s-2.687-6-6-6h-13.574c-3.313,0-6,2.687-6,6s2.686,6 6,6z" fill="#383b43"/>
    <path d="m120.348,79.818h-13.573c-3.313,0-6,2.687-6,6s2.687,6 6,6h13.573c3.313,0 6-2.687 6-6s-2.687-6-6-6z" fill="#383b43"/>
    <path d="m156.091,79.818h-13.573c-3.313,0-6,2.687-6,6s2.687,6 6,6h13.573c3.313,0 6-2.687 6-6s-2.687-6-6-6z" fill="#383b43"/>
    <path d="m191.835,79.818h-13.574c-3.313,0-6,2.687-6,6s2.687,6 6,6h13.574c3.313,0 6-2.687 6-6s-2.687-6-6-6z" fill="#383b43"/>
  </g>
</svg>
